<?xml version="1.0" encoding="utf-8"?>
<!-- Svg Vector Icons : http://www.onlinewebfonts.com/icon -->
<!DOCTYPE svg PUBLIC "-//W3C//DTD SVG 1.1//EN" "http://www.w3.org/Graphics/SVG/1.1/DTD/svg11.dtd">
<svg version="1.1" xmlns="http://www.w3.org/2000/svg" xmlns:xlink="http://www.w3.org/1999/xlink" x="0px" y="0px" viewBox="0 0 1000 1000" enable-background="new 0 0 1000 1000" xml:space="preserve">
<metadata> Svg Vector Icons : http://www.onlinewebfonts.com/icon </metadata>
<g><g transform="translate(0.000000,511.000000) scale(0.100000,-0.100000)"><path d="M4660,5007.5c-1078.1-95.8-1990.5-461.2-2785.1-1116C906.6,3092.9,301.7,1990.8,124,697.1C92,463.5,92-251.3,124-480.9c157.7-1126,599-2042.4,1361.6-2831c772.7-802.6,1750.9-1287.8,2924.9-1455.5c267.5-37.9,964.3-31.9,1247.8,12c1122,169.7,2030.5,622.9,2807.1,1397.6c774.7,776.6,1227.9,1685,1397.6,2807.1c43.9,283.5,49.9,980.3,12,1247.8c-141.8,992.3-495.1,1814.8-1096.1,2539.6C7984.2,4197,6880.2,4805.9,5608.4,4979.6C5440.7,5003.6,4813.8,5021.5,4660,5007.5z M5420.7,4300.8c1750.9-177.7,3228.3-1449.5,3659.6-3150.5c99.8-389.3,119.8-563,119.8-1042.2c0-479.2-20-652.9-119.8-1042.2C8740.9-2273.7,7734.7-3381.8,6421-3857c-483.2-175.7-844.5-235.6-1421.5-235.6c-479.2,0-652.9,20-1042.2,119.8c-1373.6,347.4-2501.6,1397.6-2954.8,2747.2C263.7,984.6,1473.6,3386.4,3691.7,4111.1C4246.8,4292.8,4843.7,4358.7,5420.7,4300.8z"/><path d="M4865.7,2573.8c-129.8-55.9-125.8-22-125.8-1351.6c0-1172,2-1205.9,39.9-1269.8c24-37.9,75.9-81.9,125.8-103.8c79.9-37.9,149.7-39.9,1768.9-39.9c1639.1,0,1689,2,1768.9,39.9c105.8,49.9,149.7,127.8,149.7,259.5c0,131.8-43.9,209.6-149.7,259.6c-79.9,37.9-127.8,39.9-1593.2,39.9H5338.8v1008.2c0,1122,2,1104.1-129.8,1160C5123.2,2611.7,4949.5,2609.7,4865.7,2573.8z"/></g></g>
</svg>