<?xml version="1.0" encoding="utf-8"?>
<!-- Svg Vector Icons : http://www.onlinewebfonts.com/icon -->
<!DOCTYPE svg PUBLIC "-//W3C//DTD SVG 1.1//EN" "http://www.w3.org/Graphics/SVG/1.1/DTD/svg11.dtd">
<svg version="1.1" xmlns="http://www.w3.org/2000/svg" xmlns:xlink="http://www.w3.org/1999/xlink" x="0px" y="0px" viewBox="0 0 1000 1000" enable-background="new 0 0 1000 1000" xml:space="preserve">
<metadata> Svg Vector Icons : http://www.onlinewebfonts.com/icon </metadata>
<g><path d="M981,889.8c4.1,30.4,9.2,68.3,9,69.5H10c-0.2-1.1,4.3-36.2,8.3-66.8c-5.2-1.5-8.3-6.4-8.3-17.1c0-16.4,0-24.1,0-24.1s0-64.2,121.9-122.1c58.6-27.7,146.5-100.7,275.5-125.8c-34-37.7-58.6-98.2-84.4-168.6c-15.2-41.5-12.9-76.8-12.9-125.9c0-36.5-5.9-95.6,2.4-128.4C340.6,70.9,413.2,40.7,498.8,40.7c84.4,0,157.1,30.1,185.2,139.7c9.4,32.7,2.3,90.6,2.3,128.4c0,49.1,2.4,84.3-11.7,125.9c-25.8,70.5-51.6,129.6-84.4,168.6c130.1,23.9,216.9,96.9,276.7,125.8C988.8,787,990,851.2,990,851.2c0,3.3,0,9.2,0,20.7C990,884.2,986.7,888.8,981,889.8z"/></g>
</svg>